<svg width="32" height="32" viewBox="0 0 32 32" fill="none" xmlns="http://www.w3.org/2000/svg">
<g id="books-book-svgrepo-com 1" clip-path="url(#clip0_486_140)">
<g id="Group">
<g id="Group_2">
<path id="Vector" d="M30.4516 8.33067V5.40267L31.0916 5.26021C31.6263 5.14099 32 4.67596 32 4.12834C32 3.58073 31.6263 3.1157 31.0916 2.99647L19.1721 0.347184C17.0947 -0.114751 14.9058 -0.114751 12.8284 0.347184L0.908387 2.99647C0.373677 3.1157 0 3.58073 0 4.12834C0 4.67596 0.373677 5.14099 0.908387 5.26021L7.22581 6.6646V14.4509C5.80284 14.4509 4.64516 15.6086 4.64516 17.0316C4.64516 17.8785 5.06116 18.6254 5.69342 19.0961C5.06116 19.5668 4.64516 20.3136 4.64516 21.1606C4.64516 22.0076 5.06116 22.7544 5.69342 23.2251C5.06116 23.6958 4.64516 24.4427 4.64516 25.2896C4.64516 26.1366 5.06116 26.8834 5.69342 27.3541C5.06116 27.8249 4.64516 28.5717 4.64516 29.4187C4.64516 30.8416 5.80284 31.9993 7.22581 31.9993H26.8387V30.967C25.985 30.967 25.2903 30.2723 25.2903 29.4187C25.2903 28.565 25.985 27.8703 26.8387 27.8703V26.838C25.985 26.838 25.2903 26.1433 25.2903 25.2896C25.2903 24.436 25.985 23.7412 26.8387 23.7412V22.709C25.985 22.709 25.2903 22.0143 25.2903 21.1606C25.2903 20.3069 25.985 19.6122 26.8387 19.6122V18.58C25.985 18.58 25.2903 17.8852 25.2903 17.0316C25.2903 16.1779 25.985 15.4832 26.8387 15.4832V14.4509H24.7742V6.6646L29.4194 5.63234V8.33067C28.5311 8.56138 27.871 9.36241 27.871 10.3219V11.8703V12.3864V13.4187H28.9032V12.3864H29.4194V13.4187H30.4516V12.3864H30.9677V13.4187H32V12.3864V11.8703V10.3219C32 9.36241 31.3399 8.56138 30.4516 8.33067ZM5.67742 21.1606C5.67742 20.3069 6.37213 19.6122 7.22581 19.6122H9.80645V22.709H7.22581C6.37213 22.709 5.67742 22.0143 5.67742 21.1606ZM24.7752 30.967H7.22581C6.37213 30.967 5.67742 30.2723 5.67742 29.4187C5.67742 28.565 6.37213 27.8703 7.22581 27.8703H24.7752C24.4506 28.3018 24.2581 28.838 24.2581 29.4187C24.2581 29.9993 24.4506 30.5356 24.7752 30.967ZM24.7752 26.838H7.22581C6.37213 26.838 5.67742 26.1433 5.67742 25.2896C5.67742 24.436 6.37213 23.7412 7.22581 23.7412H9.80645V25.8058H10.9951L12.3871 24.8778L13.7791 25.8058H14.9677V23.7412H24.7752C24.4506 24.1727 24.2581 24.709 24.2581 25.2896C24.2581 25.8703 24.4506 26.4065 24.7752 26.838ZM10.8387 24.6692V19.6122H13.9355V24.6692L12.3871 23.637L10.8387 24.6692ZM24.7752 22.709H14.9677V19.6122H24.7752C24.4506 20.0437 24.2581 20.58 24.2581 21.1606C24.2581 21.7412 24.4506 22.2775 24.7752 22.709ZM24.7752 15.4832C24.4506 15.9147 24.2581 16.4509 24.2581 17.0316C24.2581 17.6122 24.4506 18.1485 24.7752 18.58H7.22581C6.37213 18.58 5.67742 17.8852 5.67742 17.0316C5.67742 16.1779 6.37213 15.4832 7.22581 15.4832H24.7752ZM8.25806 12.3864V6.89376L12.8279 7.9095C13.8668 8.14021 14.9342 8.25737 16 8.25737C17.0658 8.25737 18.1332 8.14021 19.1721 7.9095L23.7419 6.89376V12.3864H22.7097V13.4187H23.7419V14.4509H8.25806V13.4187H21.6774V12.3864H8.25806ZM18.9481 6.9015C17.0168 7.33092 14.9832 7.33092 13.0519 6.9015L1.13239 4.25221C1.07406 4.23983 1.03226 4.18718 1.03226 4.12834C1.03226 4.06951 1.07406 4.01686 1.13187 4.00447L13.0519 1.35518C14.0175 1.14047 15.009 1.03157 16 1.03157C16.991 1.03157 17.9825 1.14047 18.9481 1.35518L30.8676 4.00447C30.9259 4.01686 30.9677 4.06951 30.9677 4.12834C30.9677 4.18718 30.9259 4.23983 30.8681 4.25221L18.9481 6.9015ZM30.9677 11.3541H28.9032V10.3219C28.9032 9.7526 29.3662 9.28963 29.9355 9.28963C30.5048 9.28963 30.9677 9.7526 30.9677 10.3219V11.3541Z" fill="#999999"/>
</g>
</g>
</g>
<defs>
<clipPath id="clip0_486_140">
<rect width="32" height="32" fill="white"/>
</clipPath>
</defs>
</svg>


