<svg width="24" height="24" viewBox="0 0 24 24" fill="none" xmlns="http://www.w3.org/2000/svg">
<g id="certificate-svgrepo-com 1">
<g id="Certificate">
<path id="Vector" d="M21.8811 1.5542H2.11853C0.950325 1.5542 0 2.50449 0 3.67272V17.3701C0 18.5383 0.950325 19.4886 2.11853 19.4886H8.91101C9.11831 19.4886 9.28601 19.3209 9.28601 19.1136C9.28601 18.9063 9.11831 18.7386 8.91101 18.7386H2.11853C1.3638 18.7386 0.75 18.1248 0.75 17.3701V3.67272C0.75 2.91796 1.3638 2.3042 2.11853 2.3042H21.8811C22.6359 2.3042 23.25 2.91796 23.25 3.67272V17.3701C23.25 18.1248 22.6359 18.7386 21.8811 18.7386C21.6738 18.7386 21.5061 18.9063 21.5061 19.1136C21.5061 19.3209 21.6738 19.4886 21.8811 19.4886C23.0493 19.4886 24 18.5383 24 17.3701V3.67272C24 2.50449 23.0493 1.5542 21.8811 1.5542Z" fill="#999999"/>
<path id="Vector_2" d="M8.25 12.0542H3.75C3.54274 12.0542 3.375 12.2219 3.375 12.4292C3.375 12.6365 3.54274 12.8042 3.75 12.8042H8.25C8.4573 12.8042 8.625 12.6365 8.625 12.4292C8.625 12.2219 8.4573 12.0542 8.25 12.0542Z" fill="#999999"/>
<path id="Vector_3" d="M8.25 14.5104H3.75C3.54274 14.5104 3.375 14.6781 3.375 14.8854C3.375 15.0926 3.54274 15.2604 3.75 15.2604H8.25C8.4573 15.2604 8.625 15.0926 8.625 14.8854C8.625 14.6781 8.4573 14.5104 8.25 14.5104Z" fill="#999999"/>
<path id="Vector_4" d="M19.4015 15.7503C19.3946 15.7267 19.3795 15.7088 19.3686 15.6877C20.1471 14.8237 20.625 13.6836 20.625 12.4292C20.625 9.73681 18.4424 7.5542 15.75 7.5542C13.0576 7.5542 10.875 9.73681 10.875 12.4292C10.875 13.6698 11.3423 14.7987 12.1056 15.6592C12.0977 15.6763 12.0852 15.69 12.0798 15.7086L10.5022 21.1175C10.4608 21.2596 10.5066 21.4123 10.619 21.5083C10.7315 21.6042 10.8897 21.6244 11.023 21.5614L12.679 20.7747L13.7194 22.2836C13.7901 22.3861 13.9061 22.4458 14.0281 22.4458C14.0493 22.4458 14.0706 22.4439 14.0918 22.4403C14.2361 22.4154 14.3526 22.3092 14.3903 22.1678L15.6941 17.3013C15.7129 17.3016 15.7311 17.3042 15.75 17.3042C15.7589 17.3042 15.7675 17.3029 15.7765 17.3028L17.0805 22.1678C17.1182 22.3088 17.2343 22.415 17.3782 22.4403C17.3998 22.4439 17.4214 22.4458 17.4426 22.4458C17.5642 22.4458 17.6796 22.3868 17.7506 22.285L18.7943 20.7836L20.4485 21.5621C20.5814 21.6244 20.7393 21.6035 20.8521 21.5075C20.9641 21.4116 21.0095 21.2592 20.9682 21.1175L19.4015 15.7503ZM15.75 8.3042C18.0246 8.3042 19.875 10.1546 19.875 12.4292C19.875 14.7037 18.0246 16.5542 15.75 16.5542C13.4755 16.5542 11.625 14.7037 11.625 12.4292C11.625 10.1546 13.4755 8.3042 15.75 8.3042ZM13.8761 21.1897L13.1151 20.0863C13.0107 19.935 12.8126 19.8808 12.6456 19.9603L11.4562 20.5254L12.7077 16.2348C13.3406 16.7415 14.1027 17.0905 14.9366 17.2309L13.8761 21.1897ZM18.8269 19.9698C18.661 19.8929 18.4637 19.9449 18.3593 20.0951L17.5957 21.1937L16.5348 17.2353C17.369 17.0999 18.1318 16.7556 18.7671 16.2537L20.0149 20.529L18.8269 19.9698Z" fill="#999999"/>
<path id="Vector_5" d="M8.625 5.6792C8.625 5.26497 8.28923 4.9292 7.875 4.9292H4.125C3.71081 4.9292 3.375 5.26497 3.375 5.6792V9.4292C3.375 9.84339 3.71081 10.1792 4.125 10.1792H7.875C8.28923 10.1792 8.625 9.84339 8.625 9.4292V5.6792ZM7.875 9.4292H4.125V5.6792H7.875V9.4292Z" fill="#999999"/>
<path id="Vector_6" d="M15.75 14.6792C16.9927 14.6792 18 13.6718 18 12.4292C18 11.1865 16.9927 10.1792 15.75 10.1792C14.5074 10.1792 13.5 11.1865 13.5 12.4292C13.5 13.6718 14.5074 14.6792 15.75 14.6792ZM15.75 10.9292C16.5771 10.9292 17.25 11.6021 17.25 12.4292C17.25 13.2563 16.5771 13.9292 15.75 13.9292C14.9229 13.9292 14.25 13.2563 14.25 12.4292C14.25 11.6021 14.9229 10.9292 15.75 10.9292Z" fill="#999999"/>
</g>
</g>
</svg>
