<svg width="24" height="24" viewBox="0 0 24 24" fill="none" xmlns="http://www.w3.org/2000/svg">
<g id="graduate-cap-svgrepo-com 2" clip-path="url(#clip0_565_324)">
<g id="Group">
<path id="Vector" d="M0.355971 10.279L3.93787 12.0044V14.8767C3.93787 15.1182 4.07623 15.3385 4.29384 15.4433L11.1463 18.7442C11.2314 18.7851 11.3247 18.8064 11.4193 18.8064H12.5707C12.6653 18.8064 12.7585 18.7851 12.8437 18.7442L19.6772 15.4524C19.8097 15.3885 19.9156 15.2803 19.9766 15.1465C19.9852 15.1277 19.9934 15.1086 20.0016 15.0895C20.035 15.0114 20.0522 14.9273 20.0522 14.8424V12.0044L21.0292 11.5337V15.4286C20.8178 15.5696 20.6548 15.7807 20.5759 16.0379L20.02 17.8493C19.9515 18.0727 19.9534 18.3083 20.0255 18.5306L20.541 20.1194C20.688 20.5726 21.1067 20.8869 21.5829 20.9016C21.5861 20.9017 21.5892 20.9017 21.5924 20.9018L21.6081 20.902C21.6113 20.9021 21.6146 20.9021 21.6179 20.9021C22.0861 20.9021 22.4994 20.6206 22.6711 20.185L23.2671 18.6719C23.3591 18.4386 23.3707 18.1776 23.2998 17.9371L22.7441 16.0502C22.6666 15.7871 22.5023 15.5711 22.2871 15.4279V10.9279L23.644 10.2742C23.8616 10.1694 24 9.94919 24 9.70759V9.20671C24 8.96515 23.8616 8.74493 23.644 8.64007L12.2679 3.16023C12.0954 3.07716 11.8945 3.07716 11.722 3.16023L0.355971 8.63529C0.138363 8.7401 0 8.96032 0 9.20193V9.71242C0 9.95397 0.138363 10.1741 0.355971 10.279ZM21.6293 19.398L21.2341 18.1803L21.6556 16.807L22.081 18.2512L21.6293 19.398ZM18.7943 14.4816L12.4271 17.5487H11.5628L5.19572 14.4816V12.6104L11.722 15.7542C11.8083 15.7957 11.9016 15.8165 11.995 15.8165C12.0884 15.8165 12.1817 15.7957 12.2679 15.7542L18.7943 12.6104L18.7943 14.4816ZM11.9949 4.42492L22.4417 9.45717L19.2336 11.0026C19.2053 11.0115 19.1774 11.022 19.1502 11.0351L11.9949 14.4819L4.8397 11.0351C4.81258 11.022 4.7847 11.0115 4.75648 11.0026L1.54826 9.45712L11.9949 4.42492Z" fill="#999999"/>
</g>
</g>
<defs>
<clipPath id="clip0_565_324">
<rect width="24" height="24" fill="white"/>
</clipPath>
</defs>
</svg>
