<svg xmlns="http://www.w3.org/2000/svg" width="16" height="16" viewBox="0 0 16 16" fill="none">
  <g clip-path="url(#clip0_1985_534)">
    <path fill-rule="evenodd" clip-rule="evenodd" d="M6.16663 10.6666C6.16663 9.65405 6.98743 8.83325 7.99996 8.83325C9.01249 8.83325 9.83329 9.65405 9.83329 10.6666C9.83329 11.6791 9.01249 12.4999 7.99996 12.4999C6.98743 12.4999 6.16663 11.6791 6.16663 10.6666ZM7.99996 9.83325C7.53969 9.83325 7.16663 10.2063 7.16663 10.6666C7.16663 11.1269 7.53969 11.4999 7.99996 11.4999C8.46023 11.4999 8.83329 11.1269 8.83329 10.6666C8.83329 10.2063 8.46023 9.83325 7.99996 9.83325Z" fill="#999999"/>
    <path fill-rule="evenodd" clip-rule="evenodd" d="M3.50004 6.20176V5.33325C3.50004 2.84797 5.51476 0.833252 8.00004 0.833252C10.4853 0.833252 12.5 2.84797 12.5 5.33325V6.20176C12.6512 6.2124 12.7938 6.22624 12.9279 6.24427C13.528 6.32494 14.0332 6.49754 14.4345 6.89879C14.8358 7.30012 15.0084 7.80532 15.089 8.40539C15.1667 8.98339 15.1667 9.71825 15.1667 10.63V10.7032C15.1667 11.6149 15.1667 12.3498 15.089 12.9278C15.0084 13.5279 14.8358 14.0331 14.4345 14.4343C14.0332 14.8357 13.528 15.0083 12.9279 15.0889C12.3499 15.1666 11.615 15.1666 10.7033 15.1666H5.29679C4.38507 15.1666 3.65019 15.1666 3.07221 15.0889C2.47213 15.0083 1.96689 14.8357 1.56561 14.4343C1.16433 14.0331 0.991734 13.5279 0.911054 12.9278C0.833348 12.3498 0.833361 11.6149 0.833374 10.7032V10.63C0.833361 9.71825 0.833348 8.98339 0.911054 8.40539C0.991734 7.80532 1.16433 7.30012 1.56561 6.89879C1.96689 6.49754 2.47213 6.32494 3.07221 6.24427C3.20629 6.22624 3.34882 6.2124 3.50004 6.20176ZM4.50004 5.33325C4.50004 3.40026 6.06705 1.83325 8.00004 1.83325C9.93304 1.83325 11.5 3.40026 11.5 5.33325V6.16888C11.251 6.16658 10.9856 6.16658 10.7033 6.16658H5.29679C5.01445 6.16658 4.74906 6.16658 4.50004 6.16888V5.33325ZM3.20545 7.23532C2.71627 7.30112 2.45722 7.42139 2.27271 7.60592C2.08821 7.79045 1.96791 8.04945 1.90214 8.53865C1.83443 9.04225 1.83337 9.70965 1.83337 10.6666C1.83337 11.6235 1.83443 12.2909 1.90214 12.7945C1.96791 13.2837 2.08821 13.5427 2.27271 13.7273C2.45722 13.9118 2.71627 14.0321 3.20545 14.0979C3.70902 14.1655 4.37643 14.1666 5.33337 14.1666H10.6667C11.6236 14.1666 12.291 14.1655 12.7946 14.0979C13.2838 14.0321 13.5428 13.9118 13.7274 13.7273C13.9119 13.5427 14.0322 13.2837 14.098 12.7945C14.1656 12.2909 14.1667 11.6235 14.1667 10.6666C14.1667 9.70965 14.1656 9.04225 14.098 8.53865C14.0322 8.04945 13.9119 7.79045 13.7274 7.60592C13.5428 7.42139 13.2838 7.30112 12.7946 7.23532C12.291 7.16765 11.6236 7.16658 10.6667 7.16658H5.33337C4.37643 7.16658 3.70902 7.16765 3.20545 7.23532Z" fill="#999999"/>
  </g>
  <defs>
    <clipPath id="clip0_1985_534">
      <rect width="16" height="16" fill="white"/>
    </clipPath>
  </defs>
</svg>