<svg width="24" height="24" viewBox="0 0 24 24" fill="none" xmlns="http://www.w3.org/2000/svg">
<g id="school-svgrepo-com (1) 1" clip-path="url(#clip0_565_322)">
<path id="Vector" d="M22.5 15.9375H17.8125V9.21974L22.2203 11.7382C22.3005 11.7847 22.3973 11.8117 22.5 11.8125C22.8105 11.8117 23.0618 11.5605 23.0618 11.2492C23.0618 11.0415 22.9493 10.86 22.782 10.7625L22.779 10.761L12.5618 4.92299V4.50899C12.6908 4.52099 12.8243 4.55999 12.951 4.55999C12.954 4.55999 12.9585 4.55999 12.9623 4.55999C13.3185 4.55999 13.6628 4.50974 13.9883 4.41524L13.962 4.42199C14.2043 4.37474 14.4818 4.34774 14.7668 4.34774C15.0608 4.34774 15.348 4.37699 15.6263 4.43174L15.5985 4.42724C15.6278 4.43249 15.6608 4.43624 15.6953 4.43624C15.8333 4.43624 15.9593 4.38524 16.0545 4.30049L16.0538 4.30124C16.1745 4.19699 16.251 4.04399 16.2518 3.87299V1.76399C16.2518 1.49774 16.0665 1.27424 15.8175 1.21649L15.8138 1.21574C15.4995 1.13249 15.1388 1.08374 14.7668 1.08374C14.3918 1.08374 14.028 1.13249 13.6823 1.22399L13.7115 1.21724C13.4955 1.26749 13.248 1.29599 12.993 1.29599C12.8198 1.29599 12.6503 1.28249 12.4845 1.25699L12.5033 1.25924C12.4118 1.06724 12.2198 0.936737 11.9963 0.936737C11.6873 0.936737 11.4368 1.18724 11.4368 1.49624C11.4368 1.49699 11.4368 1.49849 11.4368 1.49924V4.92299L1.22027 10.761C1.05002 10.86 0.936768 11.0415 0.936768 11.2492C0.936768 11.5597 1.18877 11.8117 1.49927 11.8117C1.60202 11.8117 1.69802 11.784 1.78127 11.736L1.77827 11.7375L6.18677 9.21824V15.936H1.49927C1.18877 15.936 0.936768 16.188 0.936768 16.4985V22.4985C0.936768 22.809 1.18877 23.061 1.49927 23.061H22.4993C22.8098 23.061 23.0618 22.809 23.0618 22.4985V16.4985C23.0618 16.188 22.8098 15.936 22.4993 15.936L22.5 15.9375ZM13.9935 2.30624C14.217 2.24474 14.4735 2.20874 14.7383 2.20874C14.8755 2.20874 15.0105 2.21849 15.1425 2.23649L15.1275 2.23499V3.23924C15.0075 3.22949 14.8688 3.22349 14.7278 3.22349C14.361 3.22349 14.0033 3.26249 13.659 3.33674L13.692 3.33074C13.464 3.39674 13.2023 3.43499 12.9315 3.43499C12.801 3.43499 12.6735 3.42599 12.5475 3.40949L12.5625 3.41099V2.41874C12.675 2.42924 12.8063 2.43449 12.939 2.43449C13.3133 2.43449 13.677 2.38799 14.0243 2.29949L13.9935 2.30624ZM2.06252 17.0625H6.18752V21.9375H2.06252V17.0625ZM7.31252 16.5V8.57699L12 5.89874L16.6875 8.57774V21.9382H14.8125V18.0007C14.8125 17.6902 14.5605 17.4382 14.25 17.4382H9.75002C9.43952 17.4382 9.18752 17.6902 9.18752 18.0007V21.9382H7.31252V16.5ZM10.3125 21.9375V18.5625H13.6875V21.9375H10.3125ZM21.9375 21.9375H17.8125V17.0625H21.9375V21.9375ZM12 14.8125C13.5533 14.8125 14.8125 13.5532 14.8125 12C14.8125 10.4467 13.5533 9.18749 12 9.18749C10.4468 9.18749 9.18752 10.4467 9.18752 12C9.18902 13.5525 10.4475 14.811 12 14.8125ZM12 10.3125C12.9323 10.3125 13.6875 11.0677 13.6875 12C13.6875 12.9322 12.9323 13.6875 12 13.6875C11.0678 13.6875 10.3125 12.9322 10.3125 12C10.314 11.0685 11.0685 10.314 12 10.3125Z" fill="#999999"/>
</g>
<defs>
<clipPath id="clip0_565_322">
<rect width="24" height="24" fill="white"/>
</clipPath>
</defs>
</svg>
