<svg xmlns="http://www.w3.org/2000/svg" width="24" height="24" viewBox="0 0 24 24" fill="none">
  <path d="M7.13613 2.7623H6.14613C5.67268 2.7623 5.28528 3.18865 5.28528 3.70975V20.2903C5.28528 20.8114 5.67268 21.2377 6.14613 21.2377H7.13613" stroke="#999999" stroke-linecap="round" stroke-linejoin="round"/>
  <path d="M7.13611 2.7623V21.2377H17.8538C18.3273 21.2377 18.7147 20.8114 18.7147 20.2903V3.70975C18.7147 3.18865 18.3273 2.7623 17.8538 2.7623H7.13611Z" stroke="#999999" stroke-linecap="round" stroke-linejoin="round"/>
  <path d="M13.2744 2.9232V6.526L15.1195 5.4609L16.9811 6.5355V2.8064" stroke="#999999" stroke-width="0.5" stroke-linecap="round" stroke-linejoin="round"/>
  <path d="M10.0924 14.1493H16.5054V12.6911H10.0924C10.0925 13.1772 10.0924 13.6632 10.0924 14.1493Z" stroke="#999999" stroke-width="0.5" stroke-linecap="round" stroke-linejoin="round"/>
  <path d="M10.0924 17.0836H14.8521V15.6657H10.0924C10.0925 16.1518 10.0924 16.5975 10.0924 17.0836Z" stroke="#999999" stroke-width="0.5" stroke-linecap="round" stroke-linejoin="round"/>
</svg>