<svg width="32" height="32" viewBox="0 0 32 32" fill="none" xmlns="http://www.w3.org/2000/svg">
<g id="seat-svgrepo-com 1">
<g id="Group">
<g id="Group_2">
<g id="Group_3">
<path id="Vector" d="M27.7333 12.8533H24.1459L23.68 4.37331C23.5733 1.92 21.5467 0 19.0933 0H12.9066C10.4533 0 8.47995 1.92 8.31995 4.37331L7.85532 12.8H4.2667C3.68001 12.8 3.20001 13.28 3.20001 13.8667V14.9334C3.20001 15.52 3.68001 16 4.2667 16V21.8667C4.2667 22.7734 4.96001 23.4667 5.8667 23.4667H6.40001V24C6.40001 24.32 6.61332 24.5333 6.93332 24.5333H8.53332V30.4C8.53332 31.3067 9.22663 32 10.1333 32C11.04 32 11.7333 31.3067 11.7333 30.4V24.5333H20.2666V30.4C20.2666 31.3067 20.9599 32 21.8666 32C22.7733 32 23.4666 31.3067 23.4666 30.4V24.5333H25.0666C25.3866 24.5333 25.5999 24.32 25.5999 24V23.4667H26.1332C27.0399 23.4667 27.7332 22.7734 27.7332 21.92V16C28.3199 16 28.7999 15.52 28.7999 14.9867V13.92C28.8 13.3333 28.32 12.8533 27.7333 12.8533ZM12.9067 1.06669H19.0934C20.9601 1.06669 22.5067 2.56 22.6134 4.42669L23.2095 15.4129C23.2033 15.4461 23.2 15.4814 23.2 15.5201L23.3294 17.6228L23.3589 18.1663C23.3228 18.1607 23.2863 18.1562 23.2497 18.152C23.1562 18.1339 23.0449 18.1334 22.9333 18.1334H9.0667C8.95507 18.1334 8.84382 18.1339 8.75032 18.152C8.7137 18.1562 8.67726 18.1607 8.64113 18.1663L8.78351 15.5422C8.78988 15.5177 8.7957 15.4927 8.80001 15.4668L8.9067 13.3335C8.9067 13.3243 8.90576 13.3142 8.90495 13.3043L9.3867 4.42681C9.49332 2.56 11.04 1.06669 12.9067 1.06669ZM4.2667 13.8667H7.7867L7.73338 14.9334H4.80001H4.2667V13.8667ZM5.8667 22.4C5.5467 22.4 5.33339 22.1867 5.33339 21.8667V16H7.67889L7.6682 16.1936L7.52007 18.6133C7.51051 18.6207 7.50157 18.6286 7.49207 18.6361C6.82657 19.1168 6.40007 19.9001 6.40007 20.8V22.4H5.8667ZM10.6667 30.4C10.6667 30.72 10.4534 30.9333 10.1334 30.9333C9.81338 30.9333 9.60007 30.72 9.60007 30.4V24.5333H10.6668L10.6667 30.4ZM22.4 30.4C22.4 30.72 22.1867 30.9333 21.8667 30.9333C21.5467 30.9333 21.3334 30.72 21.3334 30.4V24.5333H22.4V30.4ZM24.5333 23.4667H22.9333H20.8H11.2H9.0667H7.4667V22.9334V20.8C7.4667 20.7643 7.46801 20.7288 7.47032 20.6935C7.47045 20.6913 7.47064 20.6892 7.47076 20.687C7.4947 20.3464 7.6262 20.0284 7.83176 19.7644C7.93026 19.6459 8.04613 19.5429 8.17601 19.4583C8.22045 19.4513 8.27013 19.4382 8.32007 19.4132C8.44907 19.3165 8.5977 19.2593 8.75382 19.2287C8.77064 19.2256 8.78751 19.2227 8.80445 19.2201C8.81263 19.2188 8.82089 19.2176 8.82913 19.2164C8.8507 19.2134 8.87238 19.2108 8.89426 19.2086C8.90188 19.2078 8.90951 19.2073 8.9172 19.2067C8.93751 19.2049 8.95782 19.2033 8.97838 19.2022C9.00776 19.2009 9.03726 19.1999 9.0667 19.1999H22.9334C22.9629 19.1999 22.9923 19.2009 23.0217 19.2022C23.0423 19.2033 23.0626 19.2049 23.0829 19.2067C23.0905 19.2073 23.0982 19.2079 23.1058 19.2086C23.1277 19.2108 23.1494 19.2134 23.1709 19.2164C23.1792 19.2176 23.1874 19.2188 23.1956 19.2201C23.2126 19.2227 23.2295 19.2256 23.2463 19.2287C23.4024 19.2593 23.5511 19.3165 23.68 19.4132C23.702 19.4279 23.7251 19.4401 23.7488 19.4508C24.2074 19.7091 24.493 20.1714 24.5293 20.6875C24.5294 20.6894 24.5296 20.6912 24.5297 20.6931C24.5321 20.7285 24.5333 20.7641 24.5333 20.7999V22.9333V23.4667ZM26.6667 21.8667C26.6667 22.1867 26.4534 22.4 26.1334 22.4H25.6V20.8C25.6 20.7482 25.5983 20.6968 25.5954 20.6458C25.5944 20.6263 25.5926 20.6071 25.5912 20.5878C25.5889 20.5574 25.5864 20.527 25.5831 20.4969C25.5804 20.4717 25.5772 20.4466 25.5738 20.4216C25.5708 20.3999 25.5676 20.3783 25.5641 20.3567C25.5593 20.3259 25.554 20.2952 25.5481 20.2648C25.5463 20.2555 25.5442 20.2463 25.5422 20.2371C25.4048 19.5671 25.0255 18.9909 24.48 18.6133L24.32 16H26.6667V21.8667ZM27.7333 14.9333H24.2666L24.2133 13.8666H27.7333V14.9333Z" fill="#999999"/>
<path id="Vector_2" d="M10.9333 5.0133C11.2533 5.06662 11.52 4.8533 11.52 4.5333C11.5733 3.78661 12.16 3.19999 12.9067 3.19999H19.0934C19.8401 3.19999 20.4267 3.78668 20.4801 4.5333C20.4801 4.79999 20.7467 5.0133 21.0134 5.0133C21.3334 5.0133 21.5467 4.74662 21.5467 4.47999C21.4934 3.14668 20.4267 2.1333 19.0934 2.1333H12.9067C11.6267 2.1333 10.5067 3.14661 10.4534 4.42662C10.4 4.74668 10.6133 5.0133 10.9333 5.0133Z" fill="#999999"/>
</g>
</g>
</g>
</g>
</svg>
