<svg width="32" height="32" viewBox="0 0 32 32" fill="none" xmlns="http://www.w3.org/2000/svg">
<g id="stopwatch-svgrepo-com 1">
<path id="Vector" d="M2.25 17.875C2.25 10.7756 8.02557 5 15.125 5C22.2244 5 28 10.7756 28 17.875C28 24.9744 22.2244 30.75 15.125 30.75C8.02557 30.75 2.25 24.9744 2.25 17.875ZM4.5625 17.875C4.5625 23.6943 9.30568 28.4375 15.125 28.4375C20.9443 28.4375 25.6875 23.6943 25.6875 17.875C25.6875 12.0557 20.9443 7.3125 15.125 7.3125C9.30568 7.3125 4.5625 12.0557 4.5625 17.875ZM9.28125 2.40625C9.28125 1.77557 9.80682 1.25 10.4375 1.25H19.8125C20.4432 1.25 20.9688 1.77557 20.9688 2.40625C20.9688 3.03693 20.4432 3.5625 19.8125 3.5625H10.4375C9.80682 3.5625 9.28125 3.03693 9.28125 2.40625ZM16.2813 12.25V17.875C16.2813 18.5057 15.7557 19.0312 15.125 19.0312C14.4943 19.0312 13.9688 18.5057 13.9688 17.875V12.25C13.9688 11.6193 14.4943 11.0938 15.125 11.0938C15.7557 11.0938 16.2813 11.6193 16.2813 12.25ZM28.617 8.82947C28.3851 9.06137 28.0935 9.16875 27.8 9.16875C27.5065 9.16875 27.2149 9.06137 26.983 8.82947L24.1705 6.01697C23.7244 5.57085 23.7244 4.82915 24.1705 4.38303C24.6166 3.93691 25.3584 3.93691 25.8045 4.38303L28.617 7.19553C29.0631 7.64165 29.0631 8.38336 28.617 8.82947Z" fill="#999999" stroke="#141414" stroke-width="0.5"/>
</g>
</svg>
