<svg xmlns="http://www.w3.org/2000/svg" width="24" height="24" viewBox="0 0 24 24" fill="none">
  <g clip-path="url(#clip0_1778_59)">
    <path d="M22.5 2.25H19.875V1.5C19.875 0.6705 19.2041 0 18.375 0H5.625C4.79588 0 4.125 0.6705 4.125 1.5V2.25H1.5C0.670875 2.25 0 2.9205 0 3.75V6.75C0 9.02775 1.84688 10.875 4.125 10.875H4.161C4.50375 14.4971 7.30387 17.3981 10.875 17.9104V21H8.25C7.42088 21 6.75 21.6705 6.75 22.5V23.625C6.75 23.832 6.91762 24 7.125 24H16.875C17.0824 24 17.25 23.832 17.25 23.625V22.5C17.25 21.6705 16.5791 21 15.75 21H13.125V17.9104C16.6961 17.3981 19.4944 14.4979 19.8371 10.875H19.875C22.1531 10.875 24 9.02775 24 6.75V3.75C24 2.9205 23.3291 2.25 22.5 2.25ZM4.125 8.625C3.08925 8.625 2.25 7.78538 2.25 6.75V4.5H4.125V8.625ZM0.75 6.75V3.75C0.75 3.33562 1.086 3 1.5 3H4.125V3.75H1.875C1.66762 3.75 1.5 3.91725 1.5 4.125V6.75C1.5 8.19938 2.67525 9.375 4.125 9.375V10.125C2.26087 10.125 0.75 8.61375 0.75 6.75ZM15.75 21.75C16.164 21.75 16.5 22.0856 16.5 22.5V23.25H7.5V22.5C7.5 22.0856 7.836 21.75 8.25 21.75H15.75ZM11.625 21V17.9805C11.7502 17.9865 11.8733 18 12 18C12.1267 18 12.2498 17.9865 12.375 17.9805V21H11.625ZM19.125 10.125C19.125 14.0595 15.9349 17.25 12 17.25C8.06512 17.25 4.875 14.0595 4.875 10.125V1.5C4.875 1.08562 5.211 0.75 5.625 0.75H18.375C18.789 0.75 19.125 1.08562 19.125 1.5V10.125ZM19.875 4.5H21.75V6.75C21.75 7.78538 20.9107 8.625 19.875 8.625V4.5ZM23.25 6.75C23.25 8.61375 21.7391 10.125 19.875 10.125V9.375C21.3248 9.375 22.5 8.19938 22.5 6.75V4.125C22.5 3.91725 22.3324 3.75 22.125 3.75H19.875V3H22.5C22.914 3 23.25 3.33562 23.25 3.75V6.75Z" fill="url(#paint0_radial_1778_59)"/>
    <path d="M14.6801 7.25996L13.0642 7.01321L12.3382 5.46709C12.2764 5.33509 12.144 5.25146 11.9989 5.25146C11.8537 5.25146 11.7214 5.33547 11.6595 5.46709L10.9335 7.01321L9.3176 7.25996C9.17885 7.28171 9.06335 7.37809 9.01873 7.51159C8.9741 7.64509 9.00785 7.79172 9.10573 7.89259L10.2855 9.10271L10.0061 10.8142C9.98285 10.956 10.0432 11.0985 10.1602 11.1813C10.2772 11.2642 10.4321 11.2725 10.5581 11.2035L11.9985 10.4073L13.4389 11.2035C13.4962 11.2346 13.5589 11.25 13.6211 11.25C13.6969 11.25 13.7726 11.2267 13.8371 11.181C13.9541 11.0981 14.0145 10.9556 13.9912 10.8138L13.7119 9.10234L14.8916 7.89221C14.9899 7.79134 15.0236 7.64472 14.9786 7.51121C14.9336 7.37772 14.8192 7.28171 14.6801 7.25996ZM13.0429 8.71422C12.9596 8.79972 12.9221 8.91896 12.9412 9.03634L13.1269 10.1722L12.1811 9.64909C12.1245 9.61796 12.0622 9.60221 11.9996 9.60221C11.937 9.60221 11.8747 9.61796 11.8181 9.64909L10.8724 10.1722L11.058 9.03634C11.0771 8.91896 11.0392 8.79934 10.9564 8.71422L10.1535 7.89184L11.2459 7.72459C11.3692 7.70584 11.4754 7.62671 11.5286 7.51346L12 6.50921L12.4714 7.51346C12.5246 7.62709 12.6307 7.70622 12.7541 7.72459L13.8465 7.89184L13.0429 8.71422Z" fill="url(#paint1_radial_1778_59)"/>
  </g>
  <defs>
    <radialGradient id="paint0_radial_1778_59" cx="0" cy="0" r="1" gradientUnits="userSpaceOnUse" gradientTransform="translate(0.774193 6.23077) rotate(26.2443) scale(25.5715 472.904)">
      <stop stop-color="#293EFF"/>
      <stop offset="0.0001" stop-color="#2D3CFF"/>
      <stop offset="0.274921" stop-color="#6619FF"/>
      <stop offset="0.42597" stop-color="#8506FF"/>
      <stop offset="0.470486" stop-color="#8F00FF"/>
      <stop offset="0.530142" stop-color="#9B0EE2"/>
      <stop offset="0.629105" stop-color="#B025B3"/>
      <stop offset="0.764528" stop-color="#CD4471"/>
      <stop offset="0.899951" stop-color="#EA6330"/>
      <stop offset="0.952037" stop-color="#F56F17"/>
      <stop offset="1" stop-color="#FF7A00"/>
      <stop offset="1" stop-color="#0047FF"/>
    </radialGradient>
    <radialGradient id="paint1_radial_1778_59" cx="0" cy="0" r="1" gradientUnits="userSpaceOnUse" gradientTransform="translate(9.19284 6.80877) rotate(26.2428) scale(6.39162 118.198)">
      <stop stop-color="#293EFF"/>
      <stop offset="0.0001" stop-color="#2D3CFF"/>
      <stop offset="0.274921" stop-color="#6619FF"/>
      <stop offset="0.42597" stop-color="#8506FF"/>
      <stop offset="0.470486" stop-color="#8F00FF"/>
      <stop offset="0.530142" stop-color="#9B0EE2"/>
      <stop offset="0.629105" stop-color="#B025B3"/>
      <stop offset="0.764528" stop-color="#CD4471"/>
      <stop offset="0.899951" stop-color="#EA6330"/>
      <stop offset="0.952037" stop-color="#F56F17"/>
      <stop offset="1" stop-color="#FF7A00"/>
      <stop offset="1" stop-color="#0047FF"/>
    </radialGradient>
    <clipPath id="clip0_1778_59">
      <rect width="24" height="24" fill="white"/>
    </clipPath>
  </defs>
</svg>