<svg width="24" height="25" viewBox="0 0 24 25" fill="none" xmlns="http://www.w3.org/2000/svg">
<g id="twitter">
<path id="Vector" d="M22.9998 3.50005C22.0421 4.17552 20.9819 4.69216 19.8598 5.03005C19.2575 4.33756 18.4571 3.84674 17.5668 3.62397C16.6765 3.40121 15.7393 3.45724 14.8818 3.7845C14.0244 4.11176 13.2882 4.69445 12.7727 5.45376C12.2573 6.21308 11.9875 7.11238 11.9998 8.03005V9.03005C10.2424 9.07561 8.50103 8.68586 6.93077 7.89549C5.3605 7.10513 4.01007 5.93868 2.99976 4.50005C2.99976 4.50005 -1.00024 13.5 7.99976 17.5C5.94028 18.898 3.48691 19.599 0.999756 19.5C9.99976 24.5 20.9998 19.5 20.9998 8.00005C20.9988 7.7215 20.9721 7.44364 20.9198 7.17005C21.9404 6.16354 22.6606 4.89276 22.9998 3.50005Z" stroke="white" stroke-linecap="round" stroke-linejoin="round"/>
</g>
</svg>
