<svg xmlns="http://www.w3.org/2000/svg" width="48" height="48" viewBox="0 0 48 48" fill="none">
  <g clip-path="url(#clip0_2040_577)">
    <path d="M40.9303 6.97539C36.4378 2.47986 30.4642 0.00274282 24.0998 0C10.9849 0 0.311978 10.6695 0.306727 23.7838C0.305199 27.9759 1.40053 32.0679 3.48244 35.675L0.106972 48L12.72 44.6927C16.1951 46.5879 20.1078 47.5866 24.0896 47.5882H24.0997H24.0998C37.2126 47.5882 47.8871 36.9168 47.8927 23.8031C47.8949 17.4473 45.4221 11.4712 40.9303 6.97539ZM24.0998 43.571H24.0921C20.5429 43.5691 17.0625 42.6163 14.0268 40.8149L13.3043 40.3866L5.81952 42.349L7.81787 35.0541L7.34716 34.3062C5.36743 31.1584 4.3223 27.5206 4.32379 23.7854C4.32813 12.8851 13.199 4.01733 24.1073 4.01733C29.3896 4.01953 34.3544 6.07852 38.0884 9.81507C41.8221 13.5516 43.8768 18.5187 43.8753 23.8014C43.8706 34.702 34.9994 43.571 24.0998 43.571Z" fill="#E0E0E0"/>
    <path d="M1.1992 46.6325L4.42049 34.8705C2.43316 31.4282 1.38806 27.5228 1.38932 23.523C1.39453 11.008 11.58 0.826172 24.0947 0.826172C30.1688 0.828915 35.8696 3.19276 40.1558 7.48304C44.443 11.7733 46.8026 17.476 46.8001 23.5408C46.7949 36.0561 36.6088 46.2388 24.0956 46.2388C24.0947 46.2388 24.0963 46.2388 24.0956 46.2388H24.0855C20.2857 46.2376 16.5519 45.2837 13.2358 43.4764L1.1992 46.6325Z" fill="url(#paint0_linear_2040_577)"/>
    <path fill-rule="evenodd" clip-rule="evenodd" d="M18.2203 13.6864C17.7801 12.7077 17.3166 12.6882 16.8979 12.671C16.5553 12.6563 16.1632 12.6572 15.7717 12.6572C15.3798 12.6572 14.7431 12.8045 14.2046 13.3925C13.6659 13.9806 12.1475 15.4022 12.1475 18.2935C12.1475 21.1851 14.2536 23.9791 14.5472 24.3715C14.8411 24.7633 18.6127 30.8863 24.586 33.2419C29.5503 35.1995 30.5606 34.8101 31.6381 34.7121C32.7156 34.6142 35.115 33.2909 35.6048 31.9185C36.0946 30.5465 36.0946 29.3704 35.9476 29.1245C35.8007 28.8797 35.4088 28.7327 34.8211 28.4388C34.2334 28.145 31.3442 26.7231 30.8055 26.5271C30.2667 26.3312 29.8748 26.2333 29.483 26.8216C29.0912 27.4094 27.9656 28.7327 27.6227 29.1245C27.2799 29.5173 26.937 29.5663 26.3493 29.2724C25.7615 28.9776 23.8688 28.3577 21.6234 26.3557C19.8764 24.7981 18.6969 22.8745 18.3541 22.2861C18.0112 21.6984 18.3173 21.38 18.6121 21.0871C18.876 20.8238 19.1999 20.401 19.4937 20.0579C19.787 19.7147 19.8849 19.4698 20.0809 19.078C20.2768 18.6855 20.1788 18.3424 20.0319 18.0485C19.8849 17.7547 18.7428 14.8484 18.2203 13.6864Z" fill="white"/>
    <path d="M40.7359 6.89973C36.295 2.45581 30.39 0.00717654 24.0987 0.00439453C11.1343 0.00439453 0.583908 10.5514 0.578696 23.5152C0.577168 27.6592 1.65992 31.7042 3.71793 35.2699L0.381252 47.4534L12.8495 44.184C16.2847 46.0574 20.1525 47.0447 24.0886 47.0462H24.0986H24.0987C37.061 47.0462 47.6129 36.4974 47.6184 23.5342C47.6205 17.2514 45.1762 11.344 40.7359 6.89973ZM24.0987 43.0753H24.0911C20.5826 43.0734 17.1422 42.1315 14.1413 40.3508L13.4271 39.9275L6.02821 41.8673L8.00359 34.6561L7.53829 33.9168C5.58129 30.8051 4.54815 27.2091 4.54967 23.5168C4.55395 12.7417 13.323 3.97569 24.1061 3.97569C29.3279 3.97784 34.2355 6.01321 37.9267 9.70685C41.6176 13.4005 43.6487 18.3106 43.6471 23.5327C43.6425 34.308 34.8731 43.0753 24.0987 43.0753Z" fill="white"/>
  </g>
  <defs>
    <linearGradient id="paint0_linear_2040_577" x1="23.9997" y1="46.6325" x2="23.9997" y2="0.826248" gradientUnits="userSpaceOnUse">
      <stop stop-color="#20B038"/>
      <stop offset="1" stop-color="#60D66A"/>
    </linearGradient>
    <clipPath id="clip0_2040_577">
      <rect width="48" height="48" fill="white"/>
    </clipPath>
  </defs>
</svg>